<?xml version="1.0" encoding="UTF-8"?>
<svg id="Layer_2" data-name="Layer 2" xmlns="http://www.w3.org/2000/svg" viewBox="0 0 2134 196.3">
  <defs>
    <style>
      .cls-1 {
        fill: #ff8784;
      }

      .cls-2 {
        fill: #f6f5f1;
      }
    </style>
  </defs>
  <g id="Layer_1-2" data-name="Layer 1">
    <g>
      <g>
        <path class="cls-2" d="M362.1,189.7l-47.29-62.68c-24.19-32.17-39.86-54.98-50.86-72.58,1.1,16.77,1.1,20.89,1.37,80v55.26h-44.54V6.32h54.98l44.54,58.56c17.32,22.82,42.89,58.56,54.16,76.15-.82-10.45-1.37-34.64-1.37-78.63V6.32h44.54v183.37h-55.53Z"/>
        <path class="cls-2" d="M678.82,99.25c0,25.29-12.37,51.96-32.44,69.28-20.07,17.6-48.94,27.49-79.73,27.49-64.06,0-112.17-42.06-112.17-98.15S502.59,0,566.37,0s112.44,41.51,112.44,99.25ZM504.79,97.87c0,35.19,26.94,62.41,61.86,62.41s61.86-27.22,61.86-61.58-26.67-62.96-62.13-62.96-61.58,27.22-61.58,62.13Z"/>
        <path class="cls-2" d="M848.72,61.03c-3.3-11-7.15-16.5-15.4-20.89-8.52-4.4-18.69-6.32-32.17-6.32-27.22,0-43.44,8.25-43.44,21.99,0,10.45,7.15,15.12,26.67,17.05l44.54,4.67c23.64,2.2,36.29,5.22,48.66,11.55,16.77,8.25,27.22,25.29,27.22,44.54,0,21.44-12.65,40.69-33.27,50.59-17.6,8.52-38.21,12.1-67.91,12.1-37.39,0-63.78-7.15-80.55-21.72-12.92-11-17.6-23.09-19.24-47.29h48.11c1.38,12.1,4.67,18.42,12.1,24.19,10.17,7.7,22.82,11,41.79,11,29.97,0,47.29-8.8,47.29-23.92,0-12.1-9.07-18.15-30.52-20.34l-51.69-5.22c-40.14-4.12-61.86-22.27-61.86-51.41,0-38.21,35.19-61.58,92.37-61.58,28.87,0,54.98,6.6,71.48,17.87,14.3,9.9,20.62,21.44,24.19,43.16h-48.39Z"/>
        <path class="cls-2" d="M1075.81,61.03c-3.3-11-7.15-16.5-15.4-20.89-8.52-4.4-18.69-6.32-32.17-6.32-27.22,0-43.44,8.25-43.44,21.99,0,10.45,7.15,15.12,26.67,17.05l44.54,4.67c23.64,2.2,36.29,5.22,48.66,11.55,16.77,8.25,27.22,25.29,27.22,44.54,0,21.44-12.65,40.69-33.27,50.59-17.6,8.52-38.21,12.1-67.91,12.1-37.39,0-63.78-7.15-80.55-21.72-12.92-11-17.6-23.09-19.24-47.29h48.11c1.38,12.1,4.67,18.42,12.1,24.19,10.17,7.7,22.82,11,41.79,11,29.97,0,47.29-8.8,47.29-23.92,0-12.1-9.07-18.15-30.52-20.34l-51.69-5.22c-40.14-4.12-61.86-22.27-61.86-51.41,0-38.21,35.19-61.58,92.37-61.58,28.87,0,54.98,6.6,71.48,17.87,14.3,9.9,20.62,21.44,24.19,43.16h-48.39Z"/>
        <path class="cls-2" d="M1209.15,150.11l-17.05,39.59h-50.86L1228.4,6.32h45.09l86.88,183.37h-51.41l-18.42-39.59h-81.38ZM1259.74,84.4c-5.22-11.27-7.7-17.05-11.27-25.57-3.57,8.8-4.4,11-10.72,26.12l-12.1,28.04h47.84l-13.75-28.59Z"/>
        <path class="cls-2" d="M1380.71,189.7V6.32h160.83v37.11h-114.92v34.37h105.57v37.11h-105.57v74.78h-45.91Z"/>
        <path class="cls-2" d="M1569.31,189.7V6.32h45.91v146.26h95.67v37.11h-141.59Z"/>
        <path class="cls-2" d="M1737.01,189.7V6.32h167.7v37.11h-121.79v31.07h107.77v37.11h-107.77v40.96h121.79v37.11h-167.7Z"/>
        <path class="cls-2" d="M2074.07,189.7l-44.54-59.66-47.56,59.66h-57.18l76.43-93.75-76.43-89.62h61.31l43.44,57.73,44.54-57.73h57.18l-73.68,89.62,76.43,93.75h-59.93Z"/>
      </g>
      <g>
        <g>
          <rect class="cls-1" x="42.28" y="45.02" width="28.73" height="131.48" transform="translate(-61.73 72.49) rotate(-45)"/>
          <rect class="cls-1" x="114.94" y="45.02" width="28.73" height="131.48" transform="translate(116.19 -58.99) rotate(45)"/>
        </g>
        <rect class="cls-1" x="78.61" y="28.89" width="28.73" height="100.2"/>
      </g>
    </g>
  </g>
</svg>